<svg width="32" height="32" viewBox="0 0 32 32" fill="none" xmlns="http://www.w3.org/2000/svg">
<path d="M28.7376 5.33334C28.6165 5.32085 28.4943 5.32085 28.3732 5.33334H3.48429C3.32478 5.3358 3.16632 5.35971 3.01318 5.40445L15.8576 18.1956L28.7376 5.33334Z" fill="#00F9DB"/>
<path d="M30.0531 6.56889L17.1109 19.4578C16.7778 19.7889 16.3272 19.9747 15.8576 19.9747C15.3879 19.9747 14.9373 19.7889 14.6042 19.4578L1.77755 6.66667C1.73812 6.8116 1.71722 6.96093 1.71533 7.11112V24.8889C1.71533 25.3604 1.90263 25.8126 2.23603 26.146C2.56943 26.4794 3.02161 26.6667 3.49311 26.6667H28.382C28.8535 26.6667 29.3057 26.4794 29.6391 26.146C29.9725 25.8126 30.1598 25.3604 30.1598 24.8889V7.11112C30.1527 6.92592 30.1167 6.74297 30.0531 6.56889ZM4.71089 24.8889H3.47533V23.6178L9.93755 17.2089L11.1909 18.4622L4.71089 24.8889ZM28.3642 24.8889H27.1198L20.6398 18.4622L21.8931 17.2089L28.3553 23.6178L28.3642 24.8889Z" fill="#00F9DB"/>
</svg>
