<svg width="32" height="32" viewBox="0 0 32 32" fill="none" xmlns="http://www.w3.org/2000/svg">
<path d="M16 15.4589C13.8 15.4589 12 14.7375 10.6 13.2947C9.2 11.8519 8.5 9.99678 8.5 7.72947C8.5 5.46216 9.2 3.60709 10.6 2.16425C12 0.721418 13.8 0 16 0C18.2 0 20 0.721418 21.4 2.16425C22.8 3.60709 23.5 5.46216 23.5 7.72947C23.5 9.99678 22.8 11.8519 21.4 13.2947C20 14.7375 18.2 15.4589 16 15.4589ZM0 32V27.1562C0 25.8508 0.316666 24.7343 0.95 23.8068C1.58333 22.8792 2.4 22.175 3.4 21.694C5.63333 20.6634 7.775 19.8905 9.825 19.3752C11.875 18.8599 13.9333 18.6023 16 18.6023C18.0667 18.6023 20.1167 18.8685 22.15 19.401C24.1833 19.9334 26.3167 20.6978 28.55 21.694C29.5833 22.175 30.4167 22.8792 31.05 23.8068C31.6833 24.7343 32 25.8508 32 27.1562V32H0ZM3 28.9082H29V27.1562C29 26.6065 28.8417 26.0827 28.525 25.5845C28.2083 25.0864 27.8167 24.7171 27.35 24.4767C25.2167 23.4117 23.2667 22.6817 21.5 22.2866C19.7333 21.8916 17.9 21.694 16 21.694C14.1 21.694 12.25 21.8916 10.45 22.2866C8.65 22.6817 6.7 23.4117 4.6 24.4767C4.13333 24.7171 3.75 25.0864 3.45 25.5845C3.15 26.0827 3 26.6065 3 27.1562V28.9082ZM16 12.3672C17.3 12.3672 18.375 11.9291 19.225 11.0531C20.075 10.1771 20.5 9.06924 20.5 7.72947C20.5 6.38969 20.075 5.2818 19.225 4.4058C18.375 3.52979 17.3 3.09179 16 3.09179C14.7 3.09179 13.625 3.52979 12.775 4.4058C11.925 5.2818 11.5 6.38969 11.5 7.72947C11.5 9.06924 11.925 10.1771 12.775 11.0531C13.625 11.9291 14.7 12.3672 16 12.3672Z" fill="#00F9DB"/>
</svg>
