<svg width="27" height="27" viewBox="0 0 27 27" fill="none" xmlns="http://www.w3.org/2000/svg">
<path d="M18.33 18.48L20.57 16.24C20.8717 15.942 21.2534 15.7381 21.6688 15.6529C22.0842 15.5677 22.5154 15.6049 22.91 15.76L25.64 16.85C26.0388 17.0119 26.3808 17.2882 26.6228 17.6441C26.8648 18 26.9961 18.4196 27 18.85V23.85C26.9977 24.1428 26.9361 24.4321 26.8191 24.7004C26.702 24.9688 26.5318 25.2107 26.3188 25.4116C26.1058 25.6124 25.8544 25.7681 25.5796 25.8692C25.3048 25.9704 25.0124 26.0149 24.72 26C5.59001 24.81 1.73001 8.61 1.00001 2.41C0.966125 2.10554 0.997086 1.79735 1.09086 1.50571C1.18463 1.21407 1.33909 0.945595 1.54408 0.717939C1.74906 0.490282 1.99993 0.308608 2.28017 0.184867C2.56041 0.0611255 2.86367 -0.00187731 3.17001 2.72205e-06H8.00001C8.43102 0.00127851 8.85179 0.13147 9.20821 0.373832C9.56462 0.616194 9.84038 0.959643 10 1.36L11.09 4.09C11.2503 4.48307 11.2912 4.91465 11.2076 5.33081C11.124 5.74698 10.9196 6.1293 10.62 6.43L8.38001 8.67C8.38001 8.67 9.67001 17.4 18.33 18.48Z" fill="#00F9DB"/>
</svg>
